<mxfile host="app.diagrams.net" modified="2024-06-30T06:27:26.696Z" agent="Mozilla/5.0 (Macintosh; Intel Mac OS X 10_15_7) AppleWebKit/537.36 (KHTML, like Gecko) Chrome/126.0.0.0 Safari/537.36" etag="6EsaxE0McOeMpARexkdv" version="24.6.2" type="github">
  <diagram name="第 1 页" id="zMGvW3-kvvFJ3vJEcuYg">
    <mxGraphModel dx="882" dy="615" grid="1" gridSize="10" guides="1" tooltips="1" connect="1" arrows="1" fold="1" page="1" pageScale="1" pageWidth="827" pageHeight="1169" math="0" shadow="0">
      <root>
        <mxCell id="0" />
        <mxCell id="1" parent="0" />
        <mxCell id="LrPvCux3UTh9a4Sink_W-1" value="项目A" style="rounded=1;whiteSpace=wrap;html=1;fillColor=#dae8fc;strokeColor=#6c8ebf;" parent="1" vertex="1">
          <mxGeometry x="180" y="130" width="90" height="50" as="geometry" />
        </mxCell>
        <mxCell id="LrPvCux3UTh9a4Sink_W-40" value="人员1" style="rounded=1;whiteSpace=wrap;html=1;glass=0;" parent="1" vertex="1">
          <mxGeometry x="40" y="200" width="80" height="20" as="geometry" />
        </mxCell>
        <mxCell id="LrPvCux3UTh9a4Sink_W-48" style="edgeStyle=orthogonalEdgeStyle;rounded=0;orthogonalLoop=1;jettySize=auto;html=1;exitX=1;exitY=0.5;exitDx=0;exitDy=0;entryX=0;entryY=0.5;entryDx=0;entryDy=0;strokeColor=#00CC00;" parent="1" source="LrPvCux3UTh9a4Sink_W-41" target="LrPvCux3UTh9a4Sink_W-1" edge="1">
          <mxGeometry relative="1" as="geometry" />
        </mxCell>
        <mxCell id="LrPvCux3UTh9a4Sink_W-49" style="edgeStyle=orthogonalEdgeStyle;rounded=0;orthogonalLoop=1;jettySize=auto;html=1;exitX=1;exitY=0.5;exitDx=0;exitDy=0;entryX=0;entryY=0.5;entryDx=0;entryDy=0;strokeColor=#00CC00;" parent="1" source="LrPvCux3UTh9a4Sink_W-41" target="LrPvCux3UTh9a4Sink_W-46" edge="1">
          <mxGeometry relative="1" as="geometry" />
        </mxCell>
        <mxCell id="LrPvCux3UTh9a4Sink_W-41" value="主要负责" style="rounded=0;whiteSpace=wrap;html=1;fillColor=#60a917;fontColor=#ffffff;strokeColor=#2D7600;" parent="1" vertex="1">
          <mxGeometry x="40" y="220" width="80" height="50" as="geometry" />
        </mxCell>
        <mxCell id="LrPvCux3UTh9a4Sink_W-51" style="edgeStyle=orthogonalEdgeStyle;rounded=0;orthogonalLoop=1;jettySize=auto;html=1;exitX=0.5;exitY=1;exitDx=0;exitDy=0;entryX=0;entryY=0.5;entryDx=0;entryDy=0;strokeColor=#007FFF;" parent="1" source="LrPvCux3UTh9a4Sink_W-42" target="LrPvCux3UTh9a4Sink_W-47" edge="1">
          <mxGeometry relative="1" as="geometry" />
        </mxCell>
        <mxCell id="LrPvCux3UTh9a4Sink_W-42" value="公海" style="rounded=0;whiteSpace=wrap;html=1;fillColor=#1ba1e2;fontColor=#ffffff;strokeColor=#006EAF;" parent="1" vertex="1">
          <mxGeometry x="40" y="270" width="80" height="30" as="geometry" />
        </mxCell>
        <mxCell id="LrPvCux3UTh9a4Sink_W-43" value="人员2" style="rounded=1;whiteSpace=wrap;html=1;glass=0;" parent="1" vertex="1">
          <mxGeometry x="360" y="200" width="80" height="20" as="geometry" />
        </mxCell>
        <mxCell id="LrPvCux3UTh9a4Sink_W-53" style="edgeStyle=orthogonalEdgeStyle;rounded=0;orthogonalLoop=1;jettySize=auto;html=1;exitX=1;exitY=0.5;exitDx=0;exitDy=0;entryX=1;entryY=0.5;entryDx=0;entryDy=0;strokeColor=#00CC00;" parent="1" source="LrPvCux3UTh9a4Sink_W-44" target="LrPvCux3UTh9a4Sink_W-47" edge="1">
          <mxGeometry relative="1" as="geometry" />
        </mxCell>
        <mxCell id="LrPvCux3UTh9a4Sink_W-44" value="主要负责" style="rounded=0;whiteSpace=wrap;html=1;fillColor=#60a917;fontColor=#ffffff;strokeColor=#2D7600;" parent="1" vertex="1">
          <mxGeometry x="360" y="220" width="80" height="50" as="geometry" />
        </mxCell>
        <mxCell id="LrPvCux3UTh9a4Sink_W-54" style="edgeStyle=orthogonalEdgeStyle;rounded=0;orthogonalLoop=1;jettySize=auto;html=1;exitX=0;exitY=0.5;exitDx=0;exitDy=0;entryX=1;entryY=0.5;entryDx=0;entryDy=0;strokeColor=#007FFF;" parent="1" source="LrPvCux3UTh9a4Sink_W-45" target="LrPvCux3UTh9a4Sink_W-1" edge="1">
          <mxGeometry relative="1" as="geometry" />
        </mxCell>
        <mxCell id="LrPvCux3UTh9a4Sink_W-56" style="edgeStyle=orthogonalEdgeStyle;rounded=0;orthogonalLoop=1;jettySize=auto;html=1;exitX=0;exitY=0.5;exitDx=0;exitDy=0;entryX=1;entryY=0.5;entryDx=0;entryDy=0;strokeColor=#007FFF;" parent="1" source="LrPvCux3UTh9a4Sink_W-45" target="LrPvCux3UTh9a4Sink_W-46" edge="1">
          <mxGeometry relative="1" as="geometry" />
        </mxCell>
        <mxCell id="LrPvCux3UTh9a4Sink_W-45" value="公海" style="rounded=0;whiteSpace=wrap;html=1;fillColor=#1ba1e2;fontColor=#ffffff;strokeColor=#006EAF;" parent="1" vertex="1">
          <mxGeometry x="360" y="270" width="80" height="30" as="geometry" />
        </mxCell>
        <mxCell id="LrPvCux3UTh9a4Sink_W-46" value="项目B" style="rounded=1;whiteSpace=wrap;html=1;fillColor=#dae8fc;strokeColor=#6c8ebf;" parent="1" vertex="1">
          <mxGeometry x="180" y="220" width="90" height="50" as="geometry" />
        </mxCell>
        <mxCell id="LrPvCux3UTh9a4Sink_W-47" value="项目C" style="rounded=1;whiteSpace=wrap;html=1;fillColor=#dae8fc;strokeColor=#6c8ebf;" parent="1" vertex="1">
          <mxGeometry x="180" y="310" width="90" height="50" as="geometry" />
        </mxCell>
        <mxCell id="7-rg250Oz0LeHVBBE_dP-3" value="" style="endArrow=open;endFill=1;endSize=12;html=1;rounded=0;" edge="1" parent="1">
          <mxGeometry width="160" relative="1" as="geometry">
            <mxPoint x="280" y="560" as="sourcePoint" />
            <mxPoint x="280" y="1077" as="targetPoint" />
          </mxGeometry>
        </mxCell>
        <mxCell id="7-rg250Oz0LeHVBBE_dP-4" value="2017年" style="text;html=1;align=center;verticalAlign=middle;whiteSpace=wrap;rounded=0;" vertex="1" parent="1">
          <mxGeometry x="210" y="555" width="60" height="30" as="geometry" />
        </mxCell>
        <mxCell id="7-rg250Oz0LeHVBBE_dP-7" value="- D0提现业务、风控系统等初代建设" style="text;html=1;align=left;verticalAlign=middle;whiteSpace=wrap;rounded=0;" vertex="1" parent="1">
          <mxGeometry x="310" y="560" width="200" height="20" as="geometry" />
        </mxCell>
        <mxCell id="7-rg250Oz0LeHVBBE_dP-8" value="2020年" style="text;html=1;align=center;verticalAlign=middle;whiteSpace=wrap;rounded=0;" vertex="1" parent="1">
          <mxGeometry x="210" y="630" width="60" height="30" as="geometry" />
        </mxCell>
        <mxCell id="7-rg250Oz0LeHVBBE_dP-9" value="- 销售支撑产品线，任职技术经理" style="text;html=1;align=left;verticalAlign=middle;whiteSpace=wrap;rounded=0;" vertex="1" parent="1">
          <mxGeometry x="310" y="640" width="420" height="20" as="geometry" />
        </mxCell>
        <mxCell id="7-rg250Oz0LeHVBBE_dP-10" value="- 着手搭建售前、售中、售后系统" style="text;html=1;align=left;verticalAlign=middle;whiteSpace=wrap;rounded=0;" vertex="1" parent="1">
          <mxGeometry x="310" y="660" width="200" height="20" as="geometry" />
        </mxCell>
        <mxCell id="7-rg250Oz0LeHVBBE_dP-11" value="&lt;div&gt;- crmapp2.0重构&lt;/div&gt;- 业务开通平台&amp;nbsp; &amp;nbsp;--已接入26个应用" style="text;whiteSpace=wrap;html=1;" vertex="1" parent="1">
          <mxGeometry x="310" y="690" width="190" height="30" as="geometry" />
        </mxCell>
        <mxCell id="7-rg250Oz0LeHVBBE_dP-12" value="- 金融线，任职技术经理&lt;div&gt;- 理财保险等项目设计&lt;/div&gt;" style="text;html=1;align=left;verticalAlign=middle;whiteSpace=wrap;rounded=0;" vertex="1" parent="1">
          <mxGeometry x="309" y="600" width="160" height="20" as="geometry" />
        </mxCell>
        <mxCell id="7-rg250Oz0LeHVBBE_dP-13" value="2018年" style="text;html=1;align=center;verticalAlign=middle;whiteSpace=wrap;rounded=0;" vertex="1" parent="1">
          <mxGeometry x="210" y="595" width="60" height="30" as="geometry" />
        </mxCell>
        <mxCell id="7-rg250Oz0LeHVBBE_dP-14" value="2021年" style="text;html=1;align=center;verticalAlign=middle;whiteSpace=wrap;rounded=0;" vertex="1" parent="1">
          <mxGeometry x="210" y="750" width="60" height="30" as="geometry" />
        </mxCell>
        <mxCell id="7-rg250Oz0LeHVBBE_dP-15" value="- 销售线索系统&amp;nbsp; --网销已有线索100w，直营14w&lt;div&gt;&lt;/div&gt;" style="text;whiteSpace=wrap;html=1;" vertex="1" parent="1">
          <mxGeometry x="310" y="750" width="320" height="40" as="geometry" />
        </mxCell>
        <mxCell id="7-rg250Oz0LeHVBBE_dP-16" value="- 分润系统流程改造优化&lt;div&gt;&lt;/div&gt;" style="text;whiteSpace=wrap;html=1;" vertex="1" parent="1">
          <mxGeometry x="309" y="790" width="320" height="40" as="geometry" />
        </mxCell>
      </root>
    </mxGraphModel>
  </diagram>
</mxfile>
